<svg width="41" height="60" viewBox="0 0 41 60" fill="none" xmlns="http://www.w3.org/2000/svg">
<path fill-rule="evenodd" clip-rule="evenodd" d="M26.4248 22.1073C27.3755 22.3812 28.3746 21.8495 28.6646 20.899C28.9708 19.8518 29.1319 18.7563 29.1319 17.6447C29.1319 11.3293 23.9916 6.17395 17.659 6.17395C11.3424 6.17395 6.18605 11.3132 6.18605 17.6447C6.18605 19.0463 6.42776 20.4157 6.92729 21.7045C7.20122 22.4295 7.87799 22.8645 8.60309 22.8645C8.81256 22.8645 9.02207 22.8322 9.23153 22.7517C10.1661 22.3972 10.6334 21.3662 10.2789 20.4318C9.94053 19.5457 9.76327 18.6113 9.76327 17.6446C9.76327 13.3109 13.2922 9.76659 17.6428 9.76659C21.9774 9.76659 25.5224 13.2948 25.5224 17.6446C25.5224 18.4018 25.4096 19.159 25.2002 19.884C24.9262 20.8345 25.4741 21.8334 26.4248 22.1073L26.4248 22.1073Z" fill="#333333"/>
<path fill-rule="evenodd" clip-rule="evenodd" d="M40.0404 36.0238C40.0404 35.9462 40.0275 35.8685 40.0016 35.7908C39.4191 33.2662 37.7361 31.6867 35.613 31.6867C34.9916 31.6867 34.3961 31.8161 33.8524 32.0492C33.2699 30.2884 31.6128 29.0067 29.658 29.0067C28.9331 29.0067 28.247 29.1879 27.6515 29.4987C26.9265 28.0486 25.4248 27.0647 23.703 27.0647C23.1593 27.0647 22.6415 27.1682 22.1625 27.3366V21.9507C22.1625 19.5167 20.1818 17.5229 17.7351 17.5229C15.3013 17.5229 13.3077 19.5038 13.3077 21.9507V40.4128L11.7024 37.6292C11.1069 36.5547 10.1619 35.8167 9.02267 35.5319C7.92228 35.26 6.74423 35.4542 5.77332 36.0627C4.14217 37.0984 3.62433 39.4159 4.43991 41.9405C4.43991 41.9535 4.45286 41.9664 4.45286 41.9794C4.62116 42.4843 8.7767 54.2529 13.722 59.1856C14.0068 59.4704 14.3692 59.6128 14.7446 59.6128C15.1201 59.6128 15.4826 59.4704 15.7674 59.1856C16.337 58.6159 16.324 57.7097 15.7674 57.14C11.3658 52.7511 7.36563 41.5262 7.18438 41.0342C6.82191 39.8949 6.88665 38.7815 7.3268 38.4967C7.62454 38.3154 7.97408 38.2507 8.31067 38.3284C8.67316 38.419 8.95796 38.665 9.17803 39.0534L13.4889 46.5237C13.8126 47.0933 14.4858 47.3652 15.1071 47.1969C15.7415 47.0286 16.1816 46.4589 16.1816 45.7987V21.9637C16.1816 21.1221 16.8678 20.423 17.7222 20.423C18.5636 20.423 19.2627 21.1092 19.2627 21.9637V38.4967C19.2627 39.2994 19.91 39.9338 20.6997 39.9338C21.5023 39.9338 22.1366 39.2864 22.1366 38.4967V31.363C22.1366 31.3501 22.1496 31.3371 22.1496 31.3242C22.2272 30.5474 22.8875 29.9518 23.6772 29.9518C24.5186 29.9518 25.2177 30.638 25.2177 31.4925V33.4474V34.9881V39.0275C25.2177 39.8302 25.865 40.4646 26.6546 40.4646C27.4573 40.4646 28.0916 39.8172 28.0916 39.0275V34.9881V33.4474C28.0916 32.6059 28.7777 31.9068 29.6321 31.9068C30.4736 31.9068 31.1727 32.593 31.1727 33.4474V35.3765C31.1727 35.4671 31.1856 35.5578 31.1986 35.6484C31.1856 35.8037 31.1727 35.9591 31.1727 36.1274V39.0405C31.1727 39.8431 31.82 40.4775 32.6096 40.4775C33.3993 40.4775 34.0466 39.8302 34.0466 39.0405V36.1274C34.0466 35.2859 34.7327 34.5868 35.5871 34.5868C36.5581 34.5868 36.9853 35.739 37.1277 36.3346C37.2053 37.7458 37.8656 50.8738 35.4059 56.907C35.1081 57.645 35.4577 58.4865 36.1956 58.7843C36.3768 58.8619 36.5581 58.8879 36.7393 58.8879C37.3089 58.8879 37.8526 58.5512 38.0727 57.9945C40.9466 51.0292 40.0793 36.6324 40.0404 36.0239V36.0238Z" fill="#00B54E"/>
<path fill-rule="evenodd" clip-rule="evenodd" d="M3.56128 26.671C3.83526 26.671 4.12534 26.6066 4.3832 26.4776C5.26959 26.0264 5.60803 24.9467 5.15678 24.0603C4.12536 22.062 3.60963 19.9187 3.60963 17.6464C3.60963 9.89487 9.91101 3.59374 17.6628 3.59374C25.4147 3.59374 31.7161 9.89487 31.7161 17.6464C31.7161 18.8712 31.5549 20.0798 31.2487 21.2562C30.9908 22.2232 31.571 23.2062 32.5219 23.4479C33.4888 23.7058 34.4719 23.1256 34.7137 22.1748C35.1004 20.7083 35.2938 19.1935 35.2938 17.6464C35.2938 7.91268 27.3808 1.00002e-05 17.6467 1.00002e-05C7.91262 1.00002e-05 -0.000380023 7.91268 -0.000380023 17.6464C-0.000380023 20.4344 0.67649 23.2223 1.93355 25.688C2.27199 26.3165 2.90051 26.671 3.56127 26.671L3.56128 26.671Z" fill="#333333"/>
</svg>
