<svg width="755" height="984" viewBox="0 0 755 984" fill="none" xmlns="http://www.w3.org/2000/svg">
<g opacity="0.16">
<path d="M406.353 615.107C340.299 473.454 401.585 305.075 543.237 239.021C684.89 172.967 853.27 234.253 919.323 375.905C985.377 517.558 924.092 685.938 782.439 751.991C640.787 818.045 472.407 756.76 406.353 615.107Z" stroke="#707070"/>
<path d="M458.547 727.036C392.61 585.635 453.989 417.458 595.642 351.404C737.296 285.349 905.58 346.433 971.517 487.835C1037.45 629.236 976.075 797.413 834.421 863.467C692.768 929.522 524.483 868.438 458.547 727.036Z" stroke="#707070"/>
<path d="M713.219 608.281C647.282 466.879 708.661 298.702 850.315 232.648C991.968 166.593 1160.25 227.677 1226.19 369.079C1292.13 510.48 1230.75 678.657 1089.09 744.712C947.44 810.766 779.156 749.682 713.219 608.281Z" stroke="#707070"/>
</g>
<path fill-rule="evenodd" clip-rule="evenodd" d="M634.448 209.043C636.033 208.559 637.71 209.451 638.194 211.035L640.897 219.876C641.381 221.46 640.49 223.138 638.905 223.622L630.074 226.322C628.489 226.806 626.812 225.915 626.328 224.33L623.625 215.489C623.141 213.905 624.032 212.228 625.617 211.743L634.448 209.043Z" fill="#588FFF"/>
<path fill-rule="evenodd" clip-rule="evenodd" d="M301.411 829.154C301.784 827.539 303.395 826.533 305.009 826.905L314.017 828.985C315.631 829.358 316.638 830.969 316.265 832.583L314.186 841.591C313.813 843.205 312.202 844.212 310.588 843.839L301.58 841.759C299.965 841.387 298.959 839.776 299.331 838.162L301.411 829.154Z" fill="#FF761B"/>
<path fill-rule="evenodd" clip-rule="evenodd" d="M74.5072 486.934C73.6292 485.529 74.0565 483.678 75.4616 482.8L83.3016 477.901C84.7067 477.023 86.5575 477.45 87.4355 478.855L92.3345 486.695C93.2125 488.101 92.7852 489.951 91.3801 490.829L83.5401 495.728C82.135 496.606 80.2842 496.179 79.4062 494.774L74.5072 486.934Z" fill="#825EEE"/>
<path fill-rule="evenodd" clip-rule="evenodd" d="M721.682 542.238C722.812 541.026 724.711 540.96 725.922 542.09L728.506 544.499C729.718 545.629 729.784 547.527 728.654 548.739L726.245 551.323C725.115 552.535 723.217 552.601 722.005 551.471L719.421 549.061C718.209 547.932 718.143 546.033 719.273 544.821L721.682 542.238Z" fill="#282A5B"/>
</svg>
