<svg width="65" height="65" viewBox="0 0 65 65" fill="none" xmlns="http://www.w3.org/2000/svg">
<path fill-rule="evenodd" clip-rule="evenodd" d="M16.7139 20.899L11.7393 16.477C10.9439 15.7703 10.4879 14.7547 10.4879 13.69V13.5678C10.4879 12.6503 10.8451 11.788 11.4942 11.1389C12.0568 10.5762 12.8055 10.2665 13.6009 10.2665C14.3963 10.2665 15.145 10.5762 15.7076 11.1389L16.7139 12.1452L17.7202 11.1389C18.8456 10.0143 20.8083 10.0143 21.9337 11.1389C22.5828 11.788 22.94 12.6503 22.94 13.5678V13.69C22.94 14.7539 22.4839 15.7703 21.6885 16.477L16.7139 20.899ZM24.4965 13.69V13.5678C24.4965 12.2347 23.9774 10.9817 23.0342 10.0384C22.1781 9.18158 21.0387 8.70996 19.827 8.70996C18.6596 8.70996 17.5591 9.14812 16.7139 9.94661C15.8688 9.14812 14.7683 8.70996 13.6009 8.70996C12.3892 8.70996 11.2498 9.18158 10.3937 10.0384C9.45049 10.9817 8.9314 12.2347 8.9314 13.5678V13.69C8.9314 15.1983 9.57813 16.6381 10.705 17.6397L16.714 22.9816L22.7221 17.6405C23.8498 16.6388 24.4965 15.1991 24.4965 13.69L24.4965 13.69Z" fill="white"/>
<path fill-rule="evenodd" clip-rule="evenodd" d="M62.6774 34.4726C62.6774 35.0492 62.2084 35.5172 61.6328 35.5172H49.6531L44.5428 41.6481C44.3359 41.8946 43.8742 41.7285 43.8742 41.4068V35.5172H30.2941C29.7185 35.5172 29.2495 35.0492 29.2495 34.4726V29.2495H30.2941C32.0219 29.2495 33.428 27.8434 33.428 26.1156V10.4462H61.6328C62.2084 10.4462 62.6774 10.9142 62.6774 11.4909L62.6774 34.4726ZM37.6065 55.3651C37.6065 55.9417 37.1374 56.4097 36.5618 56.4097H22.9817V62.2993C22.9817 62.6221 22.52 62.7892 22.3132 62.5406L17.2029 56.4097H5.22312C4.64753 56.4097 4.1785 55.9417 4.1785 55.3651V34.4726C4.1785 33.896 4.64754 33.428 5.22312 33.428H15.5283L16.5301 34.6293C17.0002 35.1934 17.6907 35.5172 18.4251 35.5172C19.6556 35.5172 20.67 34.6084 20.8538 33.428H27.1602V34.4726C27.1602 36.2004 28.5663 37.6065 30.2941 37.6065H37.6065L37.6065 55.3651ZM27.1602 31.3387H20.8925V29.2495H27.1602V31.3387ZM3.13387 27.1602C2.55828 27.1602 2.08925 26.6922 2.08925 26.1156V3.13387C2.08925 2.55724 2.55829 2.08925 3.13387 2.08925H30.2941C30.8697 2.08925 31.3387 2.55724 31.3387 3.13387V26.1156C31.3387 26.6922 30.8697 27.1602 30.2941 27.1602H18.8032V33.0498C18.8032 33.3726 18.3415 33.5397 18.1347 33.2911L13.0244 27.1602H3.13387ZM61.6328 8.35699H33.428V3.13387C33.428 1.40606 32.0219 0 30.2941 0H3.13387C1.40606 0 0 1.40606 0 3.13387V26.1156C0 27.8434 1.40606 29.2495 3.13387 29.2495H12.0466L13.788 31.3387H5.22312C3.49531 31.3387 2.08925 32.7448 2.08925 34.4726V55.3651C2.08925 57.0929 3.49531 58.4989 5.22312 58.4989H16.2251L20.7086 63.8787C21.1787 64.4428 21.8692 64.7667 22.6036 64.7667C23.9637 64.7667 25.071 63.6594 25.071 62.2993V58.4989H36.5618C38.2896 58.4989 39.6957 57.0929 39.6957 55.3651V37.6065H41.785V41.4068C41.785 42.7669 42.8923 43.8742 44.2524 43.8742C44.9867 43.8742 45.6772 43.5504 46.1473 42.9863L50.6308 37.6065H61.6328C63.3606 37.6065 64.7667 36.2004 64.7667 34.4726V11.4909C64.7667 9.76305 63.3606 8.35699 61.6328 8.35699Z" fill="#00B54E"/>
<path fill-rule="evenodd" clip-rule="evenodd" d="M28.4874 44.4603C28.4874 45.298 27.8061 45.9793 26.9684 45.9793C26.1307 45.9793 25.4494 45.298 25.4494 44.4603C25.4494 43.6226 26.1307 42.9413 26.9684 42.9413C27.8061 42.9413 28.4874 43.6226 28.4874 44.4603ZM19.3735 42.9413C19.3735 42.1036 20.0547 41.4223 20.8925 41.4223C21.7302 41.4223 22.4115 42.1036 22.4115 42.9413C22.4115 43.779 21.7302 44.4603 20.8925 44.4603C20.0547 44.4603 19.3735 43.779 19.3735 42.9413ZM13.2975 44.4603C13.2975 43.6226 13.9788 42.9413 14.8165 42.9413C15.6542 42.9413 16.3355 43.6226 16.3355 44.4603C16.3355 45.298 15.6542 45.9793 14.8165 45.9793C13.9788 45.9793 13.2975 45.298 13.2975 44.4603ZM23.9304 44.4603C23.9304 44.9107 24.0353 45.3345 24.2115 45.7188C23.8841 45.4287 23.5196 45.1811 23.1254 44.9844C23.6206 44.4436 23.9304 43.7304 23.9304 42.9413C23.9304 41.2659 22.5679 39.9033 20.8925 39.9033C19.217 39.9033 17.8545 41.2659 17.8545 42.9413C17.8545 43.7304 18.1644 44.4436 18.6595 44.9843C18.2654 45.1811 17.9008 45.4286 17.5735 45.7188C17.7497 45.3345 17.8545 44.9107 17.8545 44.4603C17.8545 42.7848 16.4919 41.4223 14.8165 41.4223C13.141 41.4223 11.7785 42.7848 11.7785 44.4603C11.7785 45.2699 12.1013 46.0013 12.6193 46.5466C11.2142 47.3236 10.2595 48.8198 10.2595 50.5363V52.0552H11.7785V50.5363C11.7785 48.8608 13.141 47.4983 14.8165 47.4983C15.295 47.4983 15.7537 47.6122 16.1714 47.8211C16.0514 48.1681 15.9633 48.5312 15.9208 48.9102L15.5806 51.9709L17.0897 52.1388L17.4299 49.078C17.6266 47.3114 19.1152 45.9793 20.8925 45.9793C22.6697 45.9793 24.1583 47.3114 24.355 49.078L24.6952 52.1388L26.2044 51.9709L25.8641 48.9102C25.8223 48.5312 25.7335 48.1681 25.6135 47.8211C26.0312 47.6122 26.4899 47.4983 26.9684 47.4983C28.6439 47.4983 30.0064 48.8608 30.0064 50.5362V52.0552H31.5254V50.5362C31.5254 48.8198 30.5707 47.3236 29.1656 46.5466C29.6836 46.0013 30.0064 45.2699 30.0064 44.4603C30.0064 42.7848 28.6439 41.4223 26.9684 41.4223C25.293 41.4223 23.9304 42.7848 23.9304 44.4603V44.4603Z" fill="white"/>
<path fill-rule="evenodd" clip-rule="evenodd" d="M53.4303 27.263C53.4303 28.0501 52.7902 28.6902 52.0032 28.6902H48.867C47.4505 28.6902 46.0769 28.3041 44.8674 27.5784V21.8498L45.5067 21.2104C46.4437 20.2735 47.1094 19.0982 47.4305 17.8131C47.5097 17.4955 47.7945 17.2729 48.1227 17.2729C48.5245 17.2729 48.9041 17.4484 49.1638 17.756C49.4236 18.0628 49.5349 18.466 49.4685 18.8627L49.0204 21.5544H52.0032C52.7902 21.5544 53.4303 22.1944 53.4303 22.9815V27.263ZM40.5859 28.6902V21.5544H43.4402L43.4409 28.6902H40.5859ZM52.0032 20.1272H50.7044L50.8764 19.0968C51.0113 18.2854 50.7844 17.4605 50.2527 16.8333C49.7211 16.2054 48.9448 15.8457 48.1227 15.8457C47.1387 15.8457 46.2845 16.5129 46.0455 17.467C45.7872 18.5017 45.252 19.4464 44.4977 20.2014L44.2872 20.4119C44.0496 20.2357 43.7584 20.1272 43.4402 20.1272H40.5859C39.7988 20.1272 39.1587 20.7673 39.1587 21.5544V28.6902C39.1587 29.4772 39.7988 30.1173 40.5859 30.1173H43.4402C44.0631 30.1173 44.5876 29.7142 44.7824 29.1568C46.0483 29.7848 47.4391 30.1173 48.867 30.1173H52.0032C53.5773 30.1173 54.8575 28.8372 54.8575 27.263V22.9815C54.8575 21.4074 53.5773 20.1272 52.0032 20.1272L52.0032 20.1272Z" fill="white"/>
</svg>
