<svg width="55" height="55" viewBox="0 0 55 55" fill="none" xmlns="http://www.w3.org/2000/svg">
<mask id="mask0_1970_518" style="mask-type:luminance" maskUnits="userSpaceOnUse" x="5" y="6" width="44" height="45">
<path fill-rule="evenodd" clip-rule="evenodd" d="M5 28.0034C5 15.8532 14.8497 6.00343 27 6.00343C39.1503 6.00343 49 15.8532 49 28.0034C49 40.1537 39.1503 50.0034 27 50.0034C14.8497 50.0034 5 40.1537 5 28.0034Z" fill="white"/>
</mask>
<g mask="url(#mask0_1970_518)">
</g>
<path d="M27.5002 44.0002C21.771 44.0002 16.7064 41.0668 13.7502 36.6668C13.8189 32.0835 22.9168 29.5627 27.5002 29.5627C32.0835 29.5627 41.1814 32.0835 41.2502 36.6668C39.7354 38.9231 37.6889 40.7721 35.2911 42.0509C32.8933 43.3297 30.2177 43.9992 27.5002 44.0002ZM27.5002 11.4585C29.3235 11.4585 31.0722 12.1828 32.3615 13.4721C33.6508 14.7615 34.3752 16.5101 34.3752 18.3335C34.3752 20.1569 33.6508 21.9055 32.3615 23.1949C31.0722 24.4842 29.3235 25.2085 27.5002 25.2085C25.6768 25.2085 23.9281 24.4842 22.6388 23.1949C21.3495 21.9055 20.6252 20.1569 20.6252 18.3335C20.6252 16.5101 21.3495 14.7615 22.6388 13.4721C23.9281 12.1828 25.6768 11.4585 27.5002 11.4585ZM27.5002 4.5835C24.4907 4.5835 21.5107 5.17625 18.7303 6.32792C15.95 7.47959 13.4236 9.16762 11.2956 11.2956C6.99792 15.5933 4.5835 21.4223 4.5835 27.5002C4.5835 33.578 6.99792 39.407 11.2956 43.7047C13.4236 45.8327 15.95 47.5207 18.7303 48.6724C21.5107 49.8241 24.4907 50.4168 27.5002 50.4168C33.578 50.4168 39.407 48.0024 43.7047 43.7047C48.0024 39.407 50.4168 33.578 50.4168 27.5002C50.4168 14.8272 40.1043 4.5835 27.5002 4.5835Z" fill="white"/>
</svg>
