<svg width="208" height="40" viewBox="0 0 208 40" fill="none" xmlns="http://www.w3.org/2000/svg">
<path d="M18.6659 5.91784C19.1478 4.69405 20.9715 4.69405 21.4549 5.91784L25.1215 14.8994C24.8725 14.7356 25.2302 15.1703 25.1215 14.8994C25.3705 15.0633 25.6652 15.1506 25.9668 15.1498L33.1251 16.5341C34.5407 16.5341 35.6606 16.8463 34.5477 17.6772L29.0961 22.3997C28.8519 22.5805 28.6735 22.8311 28.5864 23.1155C28.4992 23.4 28.508 23.7037 28.6112 23.9831L30.6021 32.1073C31.087 33.4123 29.5178 34.5332 28.3311 33.7299L20.9263 29.2059C20.6728 29.0343 20.3704 28.9423 20.0604 28.9423C19.7505 28.9423 19.4481 29.0343 19.1945 29.2059L11.7897 33.7299C10.6045 34.5332 9.0338 33.4109 9.51872 32.1073L11.5096 23.9831C11.6129 23.7037 11.6216 23.4 11.5345 23.1155C11.4473 22.8311 11.2689 22.5805 11.0247 22.3997L5.57311 17.6772C4.45871 16.8463 5.07916 15.1498 6.49175 15.1498H14.1525C14.4542 15.1508 14.749 15.0636 14.998 14.8997C15.247 14.7358 15.4385 14.503 15.5471 14.232L18.6644 5.91784H18.6659Z" fill="white"/>
<path d="M28.8508 26.25C31.7082 26.25 33.8156 25.2143 35.2062 23.6519C36.5923 22.0945 37.25 20.0324 37.25 18C37.25 13.513 33.3187 9.75 28.8508 9.75C24.3725 9.75 20.75 13.4481 20.75 18C20.75 22.5519 24.3725 26.25 28.8508 26.25Z" fill="black" stroke="black" stroke-width="0.5"/>
<circle cx="29" cy="18" r="7" fill="white"/>
<path d="M56.26 27.24C55.14 27.24 54.0667 27.0933 53.04 26.8C52.0133 26.4933 51.1867 26.1 50.56 25.62L51.66 23.18C52.26 23.6067 52.9667 23.96 53.78 24.24C54.6067 24.5067 55.44 24.64 56.28 24.64C56.92 24.64 57.4333 24.58 57.82 24.46C58.22 24.3267 58.5133 24.1467 58.7 23.92C58.8867 23.6933 58.98 23.4333 58.98 23.14C58.98 22.7667 58.8333 22.4733 58.54 22.26C58.2467 22.0333 57.86 21.8533 57.38 21.72C56.9 21.5733 56.3667 21.44 55.78 21.32C55.2067 21.1867 54.6267 21.0267 54.04 20.84C53.4667 20.6533 52.94 20.4133 52.46 20.12C51.98 19.8267 51.5867 19.44 51.28 18.96C50.9867 18.48 50.84 17.8667 50.84 17.12C50.84 16.32 51.0533 15.5933 51.48 14.94C51.92 14.2733 52.5733 13.7467 53.44 13.36C54.32 12.96 55.42 12.76 56.74 12.76C57.62 12.76 58.4867 12.8667 59.34 13.08C60.1933 13.28 60.9467 13.5867 61.6 14L60.6 16.46C59.9467 16.0867 59.2933 15.8133 58.64 15.64C57.9867 15.4533 57.3467 15.36 56.72 15.36C56.0933 15.36 55.58 15.4333 55.18 15.58C54.78 15.7267 54.4933 15.92 54.32 16.16C54.1467 16.3867 54.06 16.6533 54.06 16.96C54.06 17.32 54.2067 17.6133 54.5 17.84C54.7933 18.0533 55.18 18.2267 55.66 18.36C56.14 18.4933 56.6667 18.6267 57.24 18.76C57.8267 18.8933 58.4067 19.0467 58.98 19.22C59.5667 19.3933 60.1 19.6267 60.58 19.92C61.06 20.2133 61.4467 20.6 61.74 21.08C62.0467 21.56 62.2 22.1667 62.2 22.9C62.2 23.6867 61.98 24.4067 61.54 25.06C61.1 25.7133 60.44 26.24 59.56 26.64C58.6933 27.04 57.5933 27.24 56.26 27.24ZM68.5939 27.16C67.3272 27.16 66.3406 26.84 65.6339 26.2C64.9272 25.5467 64.5739 24.58 64.5739 23.3V13.86H67.6939V23.26C67.6939 23.7133 67.8139 24.0667 68.0539 24.32C68.2939 24.56 68.6206 24.68 69.0339 24.68C69.5272 24.68 69.9472 24.5467 70.2939 24.28L71.1339 26.48C70.8139 26.7067 70.4272 26.88 69.9739 27C69.5339 27.1067 69.0739 27.16 68.5939 27.16ZM62.9139 18.88V16.48H70.3739V18.88H62.9139ZM79.4853 27V24.9L79.2853 24.44V20.68C79.2853 20.0133 79.0786 19.4933 78.6653 19.12C78.2653 18.7467 77.6453 18.56 76.8053 18.56C76.232 18.56 75.6653 18.6533 75.1053 18.84C74.5586 19.0133 74.092 19.2533 73.7053 19.56L72.5853 17.38C73.172 16.9667 73.8786 16.6467 74.7053 16.42C75.532 16.1933 76.372 16.08 77.2253 16.08C78.8653 16.08 80.1386 16.4667 81.0453 17.24C81.952 18.0133 82.4053 19.22 82.4053 20.86V27H79.4853ZM76.2053 27.16C75.3653 27.16 74.6453 27.02 74.0453 26.74C73.4453 26.4467 72.9853 26.0533 72.6653 25.56C72.3453 25.0667 72.1853 24.5133 72.1853 23.9C72.1853 23.26 72.3386 22.7 72.6453 22.22C72.9653 21.74 73.4653 21.3667 74.1453 21.1C74.8253 20.82 75.712 20.68 76.8053 20.68H79.6653V22.5H77.1453C76.412 22.5 75.9053 22.62 75.6253 22.86C75.3586 23.1 75.2253 23.4 75.2253 23.76C75.2253 24.16 75.3786 24.48 75.6853 24.72C76.0053 24.9467 76.4386 25.06 76.9853 25.06C77.5053 25.06 77.972 24.94 78.3853 24.7C78.7986 24.4467 79.0986 24.08 79.2853 23.6L79.7653 25.04C79.5386 25.7333 79.1253 26.26 78.5253 26.62C77.9253 26.98 77.152 27.16 76.2053 27.16ZM85.2291 27V16.24H88.2091V19.28L87.7891 18.4C88.1091 17.64 88.6224 17.0667 89.3291 16.68C90.0357 16.28 90.8957 16.08 91.9091 16.08V18.96C91.7757 18.9467 91.6557 18.94 91.5491 18.94C91.4424 18.9267 91.3291 18.92 91.2091 18.92C90.3557 18.92 89.6624 19.1667 89.1291 19.66C88.6091 20.14 88.3491 20.8933 88.3491 21.92V27H85.2291ZM98.8061 27.16C97.6594 27.16 96.6394 26.92 95.7461 26.44C94.8661 25.96 94.1661 25.3067 93.6461 24.48C93.1394 23.64 92.8861 22.6867 92.8861 21.62C92.8861 20.54 93.1394 19.5867 93.6461 18.76C94.1661 17.92 94.8661 17.2667 95.7461 16.8C96.6394 16.32 97.6594 16.08 98.8061 16.08C99.9394 16.08 100.953 16.32 101.846 16.8C102.739 17.2667 103.439 17.9133 103.946 18.74C104.453 19.5667 104.706 20.5267 104.706 21.62C104.706 22.6867 104.453 23.64 103.946 24.48C103.439 25.3067 102.739 25.96 101.846 26.44C100.953 26.92 99.9394 27.16 98.8061 27.16ZM98.8061 24.6C99.3261 24.6 99.7928 24.48 100.206 24.24C100.619 24 100.946 23.66 101.186 23.22C101.426 22.7667 101.546 22.2333 101.546 21.62C101.546 20.9933 101.426 20.46 101.186 20.02C100.946 19.58 100.619 19.24 100.206 19C99.7928 18.76 99.3261 18.64 98.8061 18.64C98.2861 18.64 97.8194 18.76 97.4061 19C96.9928 19.24 96.6594 19.58 96.4061 20.02C96.1661 20.46 96.0461 20.9933 96.0461 21.62C96.0461 22.2333 96.1661 22.7667 96.4061 23.22C96.6594 23.66 96.9928 24 97.4061 24.24C97.8194 24.48 98.2861 24.6 98.8061 24.6ZM113.332 16.08C114.185 16.08 114.945 16.2533 115.612 16.6C116.292 16.9333 116.825 17.4533 117.212 18.16C117.598 18.8533 117.792 19.7467 117.792 20.84V27H114.672V21.32C114.672 20.4533 114.478 19.8133 114.092 19.4C113.718 18.9867 113.185 18.78 112.492 18.78C111.998 18.78 111.552 18.8867 111.152 19.1C110.765 19.3 110.458 19.6133 110.232 20.04C110.018 20.4667 109.912 21.0133 109.912 21.68V27H106.792V16.24H109.772V19.22L109.212 18.32C109.598 17.6 110.152 17.0467 110.872 16.66C111.592 16.2733 112.412 16.08 113.332 16.08ZM126.038 27.16C124.811 27.16 123.731 26.92 122.798 26.44C121.878 25.96 121.164 25.3067 120.658 24.48C120.151 23.64 119.898 22.6867 119.898 21.62C119.898 20.54 120.144 19.5867 120.638 18.76C121.144 17.92 121.831 17.2667 122.698 16.8C123.564 16.32 124.544 16.08 125.638 16.08C126.691 16.08 127.638 16.3067 128.478 16.76C129.331 17.2 130.004 17.84 130.498 18.68C130.991 19.5067 131.238 20.5 131.238 21.66C131.238 21.78 131.231 21.92 131.218 22.08C131.204 22.2267 131.191 22.3667 131.178 22.5H122.438V20.68H129.538L128.338 21.22C128.338 20.66 128.224 20.1733 127.998 19.76C127.771 19.3467 127.458 19.0267 127.058 18.8C126.658 18.56 126.191 18.44 125.658 18.44C125.124 18.44 124.651 18.56 124.238 18.8C123.838 19.0267 123.524 19.3533 123.298 19.78C123.071 20.1933 122.958 20.6867 122.958 21.26V21.74C122.958 22.3267 123.084 22.8467 123.338 23.3C123.604 23.74 123.971 24.08 124.438 24.32C124.918 24.5467 125.478 24.66 126.118 24.66C126.691 24.66 127.191 24.5733 127.618 24.4C128.058 24.2267 128.458 23.9667 128.818 23.62L130.478 25.42C129.984 25.98 129.364 26.4133 128.618 26.72C127.871 27.0133 127.011 27.16 126.038 27.16ZM139.199 27V13H145.559C147.079 13 148.419 13.2933 149.579 13.88C150.739 14.4533 151.646 15.26 152.299 16.3C152.952 17.34 153.279 18.5733 153.279 20C153.279 21.4133 152.952 22.6467 152.299 23.7C151.646 24.74 150.739 25.5533 149.579 26.14C148.419 26.7133 147.079 27 145.559 27H139.199ZM142.439 24.34H145.399C146.332 24.34 147.139 24.1667 147.819 23.82C148.512 23.46 149.046 22.9533 149.419 22.3C149.806 21.6467 149.999 20.88 149.999 20C149.999 19.1067 149.806 18.34 149.419 17.7C149.046 17.0467 148.512 16.5467 147.819 16.2C147.139 15.84 146.332 15.66 145.399 15.66H142.439V24.34ZM155.503 27V16.24H158.623V27H155.503ZM157.063 14.74C156.489 14.74 156.023 14.5733 155.663 14.24C155.303 13.9067 155.123 13.4933 155.123 13C155.123 12.5067 155.303 12.0933 155.663 11.76C156.023 11.4267 156.489 11.26 157.063 11.26C157.636 11.26 158.103 11.42 158.463 11.74C158.823 12.0467 159.003 12.4467 159.003 12.94C159.003 13.46 158.823 13.8933 158.463 14.24C158.116 14.5733 157.649 14.74 157.063 14.74ZM166.578 31.04C165.565 31.04 164.585 30.9133 163.638 30.66C162.705 30.42 161.925 30.0533 161.298 29.56L162.538 27.32C162.991 27.6933 163.565 27.9867 164.258 28.2C164.965 28.4267 165.658 28.54 166.338 28.54C167.445 28.54 168.245 28.2933 168.738 27.8C169.245 27.3067 169.498 26.5733 169.498 25.6V23.98L169.698 21.28L169.658 18.56V16.24H172.618V25.2C172.618 27.2 172.098 28.6733 171.058 29.62C170.018 30.5667 168.525 31.04 166.578 31.04ZM166.098 26.48C165.098 26.48 164.191 26.2667 163.378 25.84C162.578 25.4 161.931 24.7933 161.438 24.02C160.958 23.2333 160.718 22.32 160.718 21.28C160.718 20.2267 160.958 19.3133 161.438 18.54C161.931 17.7533 162.578 17.1467 163.378 16.72C164.191 16.2933 165.098 16.08 166.098 16.08C167.005 16.08 167.805 16.2667 168.498 16.64C169.191 17 169.731 17.5667 170.118 18.34C170.505 19.1 170.698 20.08 170.698 21.28C170.698 22.4667 170.505 23.4467 170.118 24.22C169.731 24.98 169.191 25.5467 168.498 25.92C167.805 26.2933 167.005 26.48 166.098 26.48ZM166.718 23.92C167.265 23.92 167.751 23.8133 168.178 23.6C168.605 23.3733 168.938 23.06 169.178 22.66C169.418 22.26 169.538 21.8 169.538 21.28C169.538 20.7467 169.418 20.2867 169.178 19.9C168.938 19.5 168.605 19.1933 168.178 18.98C167.751 18.7533 167.265 18.64 166.718 18.64C166.171 18.64 165.685 18.7533 165.258 18.98C164.831 19.1933 164.491 19.5 164.238 19.9C163.998 20.2867 163.878 20.7467 163.878 21.28C163.878 21.8 163.998 22.26 164.238 22.66C164.491 23.06 164.831 23.3733 165.258 23.6C165.685 23.8133 166.171 23.92 166.718 23.92ZM175.522 27V16.24H178.642V27H175.522ZM177.082 14.74C176.509 14.74 176.042 14.5733 175.682 14.24C175.322 13.9067 175.142 13.4933 175.142 13C175.142 12.5067 175.322 12.0933 175.682 11.76C176.042 11.4267 176.509 11.26 177.082 11.26C177.655 11.26 178.122 11.42 178.482 11.74C178.842 12.0467 179.022 12.4467 179.022 12.94C179.022 13.46 178.842 13.8933 178.482 14.24C178.135 14.5733 177.669 14.74 177.082 14.74ZM185.938 27.16C184.671 27.16 183.684 26.84 182.978 26.2C182.271 25.5467 181.918 24.58 181.918 23.3V13.86H185.038V23.26C185.038 23.7133 185.158 24.0667 185.398 24.32C185.638 24.56 185.964 24.68 186.378 24.68C186.871 24.68 187.291 24.5467 187.638 24.28L188.478 26.48C188.158 26.7067 187.771 26.88 187.318 27C186.878 27.1067 186.418 27.16 185.938 27.16ZM180.258 18.88V16.48H187.718V18.88H180.258ZM196.829 27V24.9L196.629 24.44V20.68C196.629 20.0133 196.422 19.4933 196.009 19.12C195.609 18.7467 194.989 18.56 194.149 18.56C193.576 18.56 193.009 18.6533 192.449 18.84C191.902 19.0133 191.436 19.2533 191.049 19.56L189.929 17.38C190.516 16.9667 191.222 16.6467 192.049 16.42C192.876 16.1933 193.716 16.08 194.569 16.08C196.209 16.08 197.482 16.4667 198.389 17.24C199.296 18.0133 199.749 19.22 199.749 20.86V27H196.829ZM193.549 27.16C192.709 27.16 191.989 27.02 191.389 26.74C190.789 26.4467 190.329 26.0533 190.009 25.56C189.689 25.0667 189.529 24.5133 189.529 23.9C189.529 23.26 189.682 22.7 189.989 22.22C190.309 21.74 190.809 21.3667 191.489 21.1C192.169 20.82 193.056 20.68 194.149 20.68H197.009V22.5H194.489C193.756 22.5 193.249 22.62 192.969 22.86C192.702 23.1 192.569 23.4 192.569 23.76C192.569 24.16 192.722 24.48 193.029 24.72C193.349 24.9467 193.782 25.06 194.329 25.06C194.849 25.06 195.316 24.94 195.729 24.7C196.142 24.4467 196.442 24.08 196.629 23.6L197.109 25.04C196.882 25.7333 196.469 26.26 195.869 26.62C195.269 26.98 194.496 27.16 193.549 27.16ZM202.573 27V12.16H205.693V27H202.573Z" fill="white"/>
</svg>
