<svg width="50" height="51" viewBox="0 0 50 51" fill="none" xmlns="http://www.w3.org/2000/svg">
<rect y="1" width="50" height="50" rx="15" fill="white"/>
<circle cx="25" cy="26" r="20" fill="#0166FF"/>
<path d="M37.0314 30.4412L37.218 31.0978C37.2375 31.3784 37.1145 31.7217 36.849 32.1278C36.1473 33.1868 34.9885 34.4302 33.3726 35.8581C31.7676 37.2735 30.5618 38.0092 29.7551 38.0653C28.9485 38.1213 28.3009 37.9313 27.8125 37.4954C27.3233 37.0477 27.0576 36.52 27.0154 35.912C26.965 35.1872 27.6137 33.5328 28.9613 30.9489C30.9852 27.108 33.5973 22.6037 36.7977 17.4359C36.1031 18.2594 34.2602 20.4784 31.2691 24.0928C24.6459 32.0709 20.7667 36.5986 19.6316 37.676C19.4442 37.8534 19.1576 37.9556 18.7718 37.9824C18.3977 38.0084 17.9897 37.884 17.5477 37.6093C17.1049 37.3228 16.8701 36.9867 16.8433 36.601L16.8372 36.5133C16.8499 36.019 17.8112 33.5383 19.7211 29.071C21.631 24.6037 23.2456 21.0438 24.565 18.3913C22.5243 20.9764 20.4798 23.8437 18.4314 26.9932C14.5356 32.9728 11.7329 38.0308 10.0232 42.167C9.87379 42.5533 9.67051 42.7553 9.41332 42.7732C9.15612 42.7911 8.77756 42.7528 8.27762 42.6583C7.22936 42.4491 6.68087 41.9939 6.63215 41.2924C6.60292 40.8716 7.35784 39.3097 8.8969 36.6067C10.4351 33.892 12.2319 30.9244 14.2871 27.704C16.3415 24.4718 18.4859 21.3509 20.7202 18.3412C23.8026 14.1801 25.8231 12.0663 26.7817 11.9997C26.9337 11.9891 27.0827 12.0199 27.2286 12.092C27.3738 12.1524 27.4639 12.1814 27.499 12.1789C27.534 12.1765 27.5679 12.1565 27.6005 12.119C27.7395 11.9214 28.0311 11.8072 28.4754 11.7763C28.9313 11.7446 29.3758 11.8019 29.8088 11.948C30.2536 12.0933 30.4837 12.277 30.4991 12.4991C30.5088 12.6394 30.0018 13.7965 28.9781 15.9703C25.5441 23.1865 23.245 28.139 22.0809 30.8277C23.2589 29.1835 24.951 26.9926 27.1572 24.2551C29.3751 21.5167 31.7104 18.776 34.1629 16.0331C37.3576 12.475 39.2882 10.6729 39.9546 10.6266C40.2234 10.6079 40.5665 10.6428 40.9838 10.7313C41.7232 10.8914 42.4261 10.9483 43.0925 10.902C43.282 10.9241 43.4455 10.9949 43.583 11.1146C43.7314 11.2218 43.8101 11.3396 43.819 11.4682C43.828 11.5968 43.8002 11.7045 43.7357 11.7912C40.2871 17.1054 37.3932 21.782 35.0542 25.821C32.7152 29.86 31.2888 32.5786 30.7751 33.977C31.9847 33.6345 33.7124 32.0403 35.9581 29.1942C36.0536 29.0466 36.1231 28.9478 36.1666 28.8978C36.2101 28.8478 36.2477 28.7982 36.2796 28.749C36.4621 28.5014 36.6242 28.637 36.766 29.1557C36.8338 29.4564 36.8781 29.6707 36.8987 29.7985C36.9302 29.9137 36.9567 30.0411 36.9781 30.1806C37.0104 30.3076 37.0282 30.3944 37.0314 30.4412Z" fill="white"/>
</svg>
