<svg width="40" height="40" viewBox="0 0 40 40" fill="none" xmlns="http://www.w3.org/2000/svg">
<path d="M18.6659 5.91784C19.1478 4.69405 20.9715 4.69405 21.4549 5.91784L25.1215 14.8994C24.8725 14.7356 25.2302 15.1703 25.1215 14.8994C25.3705 15.0633 25.6652 15.1506 25.9668 15.1498L33.1251 16.5341C34.5407 16.5341 35.6606 16.8463 34.5477 17.6772L29.0961 22.3997C28.8519 22.5805 28.6735 22.8311 28.5864 23.1155C28.4992 23.4 28.508 23.7037 28.6112 23.9831L30.6021 32.1073C31.087 33.4123 29.5178 34.5332 28.3311 33.7299L20.9263 29.2059C20.6728 29.0343 20.3704 28.9423 20.0604 28.9423C19.7505 28.9423 19.4481 29.0343 19.1945 29.2059L11.7897 33.7299C10.6045 34.5332 9.0338 33.4109 9.51872 32.1073L11.5096 23.9831C11.6129 23.7037 11.6216 23.4 11.5345 23.1155C11.4473 22.8311 11.2689 22.5805 11.0247 22.3997L5.57311 17.6772C4.45871 16.8463 5.07916 15.1498 6.49175 15.1498H14.1525C14.4542 15.1508 14.749 15.0636 14.998 14.8997C15.247 14.7358 15.4385 14.503 15.5471 14.232L18.6644 5.91784H18.6659Z" fill="white"/>
<path d="M28.8508 26.25C31.7082 26.25 33.8156 25.2143 35.2062 23.6519C36.5923 22.0945 37.25 20.0324 37.25 18C37.25 13.513 33.3187 9.75 28.8508 9.75C24.3725 9.75 20.75 13.4481 20.75 18C20.75 22.5519 24.3725 26.25 28.8508 26.25Z" fill="#0B171C" stroke="#0B171C" stroke-width="0.5"/>
<circle cx="29" cy="18" r="7" fill="white"/>
</svg>
