<svg width="25" height="25" viewBox="0 0 25 25" fill="none" xmlns="http://www.w3.org/2000/svg">
<g clip-path="url(#clip0_1970_652)">
<path d="M25 21.1538C25 22.1738 24.7073 23.1521 24.1864 23.8734C23.6655 24.5947 22.9589 24.9999 22.2222 24.9999H2.77778C2.04107 24.9999 1.33453 24.5947 0.813592 23.8734C0.292658 23.1521 0 22.1738 0 21.1538V17.3076H25V21.1538Z" fill="#CE2028"/>
<path d="M0 7.69238H25V17.3078H0V7.69238Z" fill="#22408C"/>
<path d="M22.2222 0H2.77778C2.04107 0 1.33453 0.405218 0.813592 1.12651C0.292658 1.84781 0 2.82609 0 3.84615L0 7.69231H25V3.84615C25 2.82609 24.7073 1.84781 24.1864 1.12651C23.6655 0.405218 22.9589 0 22.2222 0Z" fill="#EEEEEE"/>
</g>
<defs>
<clipPath id="clip0_1970_652">
<rect width="25" height="25" rx="12.5" fill="white"/>
</clipPath>
</defs>
</svg>
