<svg width="27" height="27" viewBox="0 0 27 27" fill="none" xmlns="http://www.w3.org/2000/svg">
<g clip-path="url(#clip0_2052_800)">
<path d="M13.5 0.84375C8.14224 0.84375 3.58599 4.17656 1.72974 8.85938H25.2704C23.4141 4.17656 18.8579 0.84375 13.5 0.84375Z" fill="#42ADE2"/>
<path d="M13.5 26.1562C18.8579 26.1562 23.4141 22.8234 25.2704 18.1406H1.72974C3.58599 22.8234 8.14224 26.1562 13.5 26.1562Z" fill="#83BF4F"/>
<path d="M26.1562 13.5C26.1562 12.1922 25.9453 10.8844 25.5656 9.70312H1.43438C1.05469 10.8844 0.84375 12.1922 0.84375 13.5C0.84375 14.8078 1.05469 16.1156 1.43438 17.2969H25.5656C25.9453 16.1156 26.1562 14.8078 26.1562 13.5Z" fill="white"/>
<path d="M25.2703 8.85938C25.3125 8.98594 25.3968 9.15469 25.439 9.28125C25.4812 9.40781 25.5234 9.57656 25.5656 9.70312" fill="#C94747"/>
<path d="M25.439 9.28125C25.3968 9.15469 25.3124 8.98594 25.2703 8.85938H1.72964C1.68745 8.98594 1.60308 9.15469 1.56089 9.28125C1.5187 9.40781 1.47651 9.57656 1.43433 9.70312H25.5656C25.5234 9.57656 25.4812 9.40781 25.439 9.28125ZM1.56089 17.7188C1.60308 17.8453 1.68745 18.0141 1.72964 18.1406H25.2703C25.3124 18.0141 25.3968 17.8453 25.439 17.7188C25.4812 17.5922 25.5234 17.4234 25.5656 17.2969H1.43433C1.47651 17.4234 1.5187 17.5922 1.56089 17.7188Z" fill="#C94747"/>
<path d="M8.60625 7.29844C7.59375 7.29844 6.79219 6.49688 6.79219 5.48438C6.79219 4.47187 7.59375 3.67031 8.60625 3.67031C8.85937 3.67031 9.07031 3.7125 9.28125 3.79688C8.94375 3.54375 8.47969 3.375 8.01562 3.375C6.83438 3.375 5.90625 4.30313 5.90625 5.48438C5.90625 6.66562 6.83438 7.59375 8.01562 7.59375C8.47969 7.59375 8.94375 7.425 9.28125 7.17188C9.07031 7.25625 8.85937 7.29844 8.60625 7.29844ZM10.4203 6.4125L10.5891 6.87656H11.0531L10.6734 7.12969L10.8 7.59375L10.4203 7.29844L10.0406 7.59375L10.2094 7.12969L9.82969 6.87656H10.2937L10.4203 6.4125ZM12.2344 6.4125L12.3609 6.87656H12.8672L12.4875 7.12969L12.6141 7.59375L12.2344 7.29844L11.8547 7.59375L11.9812 7.12969L11.6016 6.87656H12.0656L12.2344 6.4125ZM14.0484 6.4125L14.175 6.87656H14.6391L14.2594 7.12969L14.4281 7.59375L14.0484 7.29844L13.6266 7.59375L13.7953 7.12969L13.4156 6.87656H13.8797L14.0484 6.4125ZM15.8203 6.4125L15.9891 6.87656H16.4531L16.0734 7.12969L16.2 7.59375L15.8203 7.29844L15.4406 7.59375L15.5672 7.12969L15.1875 6.87656H15.6938L15.8203 6.4125ZM17.6344 6.4125L17.7609 6.87656H18.2672L17.8453 7.12969L18.0141 7.59375L17.6344 7.29844L17.2547 7.59375L17.3813 7.12969L17.0016 6.87656H17.4656L17.6344 6.4125ZM12.2344 4.89375L12.3609 5.35781H12.8672L12.4875 5.61094L12.6141 6.075L12.2344 5.77969L11.8547 6.075L11.9812 5.61094L11.6016 5.35781H12.0656L12.2344 4.89375ZM14.0484 4.89375L14.175 5.35781H14.6391L14.2594 5.61094L14.4281 6.075L14.0484 5.77969L13.6266 6.075L13.7953 5.61094L13.4156 5.35781H13.8797L14.0484 4.89375ZM15.8203 4.89375L15.9891 5.35781H16.4531L16.0734 5.61094L16.2 6.075L15.8203 5.77969L15.4406 6.075L15.5672 5.61094L15.1875 5.35781H15.6938L15.8203 4.89375ZM17.6344 4.89375L17.7609 5.35781H18.2672L17.8453 5.61094L18.0141 6.075L17.6344 5.77969L17.2547 6.075L17.3813 5.61094L17.0016 5.35781H17.4656L17.6344 4.89375ZM14.0484 3.375L14.175 3.83906H14.6391L14.2594 4.09219L14.4281 4.55625L14.0484 4.26094L13.6266 4.55625L13.7953 4.09219L13.4156 3.83906H13.8797L14.0484 3.375ZM15.8203 3.375L15.9891 3.83906H16.4531L16.0734 4.09219L16.2 4.55625L15.8203 4.26094L15.4406 4.55625L15.5672 4.09219L15.1875 3.83906H15.6938L15.8203 3.375ZM17.6344 3.375L17.7609 3.83906H18.2672L17.8453 4.09219L18.0141 4.55625L17.6344 4.26094L17.2547 4.55625L17.3813 4.09219L17.0016 3.83906H17.4656L17.6344 3.375Z" fill="white"/>
</g>
<defs>
<clipPath id="clip0_2052_800">
<rect width="27" height="27" fill="white"/>
</clipPath>
</defs>
</svg>
